<svg width="55" height="49" viewBox="0 0 55 49" fill="none" xmlns="http://www.w3.org/2000/svg">
<path fill-rule="evenodd" clip-rule="evenodd" d="M49.1046 1.77036C45.961 3.9151 44.4037 5.17847 40.5256 8.73345C37.2056 11.7596 37.2645 11.7302 36.3244 10.7607C34.3854 8.67471 27.2752 6.79435 25.248 7.88143C24.2784 8.38088 24.3961 9.37981 25.4243 9.37981C28.2153 9.40919 30.8009 10.7019 33.0044 12.5529C34.9728 14.2275 34.9728 14.1394 32.1818 16.901C29.1849 19.839 24.9249 24.6867 22.545 27.8304L20.7234 30.2396L19.1957 27.9774C15.5819 22.5713 11.6744 19.8979 9.26527 21.1611C8.38385 21.6313 8.53076 21.9251 11.175 24.7163C13.496 27.1548 15.9051 30.6216 17.6092 34.0002C18.99 36.7328 22.3982 36.7328 24.7192 32.7958C26.394 29.9458 30.7127 24.5106 34.2676 20.8087L37.4408 17.4887L38.2046 19.1927C45.0209 34.4411 28.3916 52.0983 14.4068 44.4596C0.128055 36.6446 3.35985 11.5833 18.9314 9.35043C21.9869 8.90974 22.0455 7.8814 19.0193 7.49948C11.2043 6.44179 1.21513 15.6964 0.157439 24.9219C-1.84042 42.5206 15.5233 53.9788 32.5049 46.3105C42.8173 41.6684 47.6355 24.9806 41.26 16.1666C40.7901 15.5203 40.4081 14.9034 40.4081 14.7563C40.4081 14.1394 45.6672 9.43855 51.2493 5.14906C57.5366 0.301361 54.2755 -1.75526 49.1046 1.77036Z" fill="#2DAAB2"/>
</svg>
