<svg width="98" height="104" viewBox="0 0 98 104" fill="none" xmlns="http://www.w3.org/2000/svg">
<path d="M74.7674 28.1754C93.0344 12.8837 100.023 5.13397 96.7016 3.88849C94.9718 3.26575 94.2106 3.40407 91.1661 4.85713C85.2847 7.76324 63.9041 26.0304 63.9041 28.1754C63.9041 31.1507 71.1001 31.2199 74.7674 28.1754Z" fill="#F6FAFF"/>
<path d="M26.8165 28.729C29.0998 27.2067 28.9615 26.9299 20.1047 17.3121C15.3996 12.1223 11.5251 8.87019 8.68814 7.62472C4.81333 5.89489 2.94504 8.24759 4.46729 10.185C17.4754 26.93 22.8725 31.3583 26.8165 28.729Z" fill="#F6FAFF"/>
<path d="M88.3984 51.2859C84.1776 50.0405 62.59 43.1903 60.9986 42.5676C60.2375 42.2908 59.6839 40.907 59.4071 38.5544C57.1238 20.9793 53.525 2.91951 51.9336 0.912905C50.7573 -0.609344 46.7441 -0.124992 45.637 1.60484C44.5299 3.33467 39.4096 20.8409 36.3651 33.5725L34.3592 41.8757C-4.94277 54.3304 -7.0879 54.0537 10.6947 59.5199L26.402 64.3634C35.3279 67.1312 35.5348 67.1997 36.0192 69.4138C36.7111 72.5967 41.2086 88.0967 42.9385 95.5004C46.6057 111.415 54.0793 101.589 60.6526 71.9747L62.1749 65.1938C63.0052 65.0554 68.2632 64.571 90.9585 59.6583C96.148 58.482 94.6258 53.085 88.3984 51.2859ZM78.5729 54.6764C78.0194 55.1608 62.8661 58.828 59.8908 58.828C56.2928 58.828 55.4624 60.5578 51.38 76.8182C48.6815 87.5431 48.4746 87.75 46.9524 81.5226C45.0841 73.7038 41.2778 64.571 40.7935 62.426C40.3783 60.4886 36.5035 59.1048 21.4886 55.5067C13.9469 53.7077 12.7706 53.085 15.6072 52.2546C19.136 51.2167 36.0883 45.6813 38.0258 45.6813C39.894 45.6813 41.4854 44.2974 42.039 42.2216L47.436 21.1869C48.4047 17.5197 48.4054 17.5197 51.104 31.8427C54.2176 47.9647 53.871 47.272 58.8529 48.3099C65.0803 49.6246 79.1957 54.1229 78.5729 54.6764Z" fill="#F6FAFF"/>
<path d="M65.9799 73.0818C65.9799 74.604 84.2468 93.0786 86.807 94.1165C92.2041 96.3307 93.5879 93.4239 89.2979 88.7879C77.7427 76.1256 65.9799 68.2382 65.9799 73.0818Z" fill="#F6FAFF"/>
<path d="M12.7014 77.5101C-0.583697 86.5052 -2.10602 88.581 4.53653 88.581C7.7886 88.581 28.3387 74.3272 27.716 72.459C26.7473 69.5529 22.1113 71.0752 12.7014 77.5101Z" fill="#F6FAFF"/>
</svg>
