<svg width="188" height="153" viewBox="0 0 188 153" fill="none" xmlns="http://www.w3.org/2000/svg">
<path d="M114.054 31.0339C117.424 24.1821 113.043 19.2399 108.382 24.6876C104.956 28.7313 100.126 40.2445 100.969 42.4348C102.934 47.4332 108.326 42.7156 114.054 31.0339Z" fill="#F3C26A"/>
<path d="M80.5258 44.8492C84.064 45.9724 85.2997 43.8944 84.9066 37.4919C84.0642 24.8554 80.1889 19.6324 73.5618 22.272C70.4167 23.5076 76.5945 43.6136 80.5258 44.8492Z" fill="#F3C26A"/>
<path d="M45.088 48.1077C53.063 54.0608 58.6228 56.7004 61.4309 55.6895C64.913 54.454 64.3516 53.2746 58.0053 48.2762C49.9179 41.8175 45.4809 39.908 41.2126 41.0313C38.1799 41.8175 39.1349 43.6147 45.088 48.1077Z" fill="#F3C26A"/>
<path d="M113.998 50.2412C112.088 52.3192 112.088 52.3753 113.549 53.4424C117.705 56.4751 122.141 54.0602 139.72 39.065C144.438 35.0213 136.631 31.8201 131.127 35.5829C128.263 37.5486 116.244 47.8262 113.998 50.2412Z" fill="#F3C26A"/>
<path d="M180.831 151.445C178.866 149.816 177.574 146.783 177.012 142.459C176.619 139.482 170.329 90.2844 167.465 77.311C165.106 66.5279 158.479 61.4172 153.2 61.1364C149.886 60.9679 147.977 63.1582 146.629 62.3158C142.978 60.0131 141.967 58.946 138.373 59.283C136.688 59.3953 132.925 60.4062 131.633 61.5295C130.791 62.2034 129.724 62.2034 127.365 61.5856C115.796 58.4967 110.685 69.5045 115.908 86.2969C118.885 95.9006 123.153 91.6884 121.917 80.3999C120.289 65.4608 120.626 63.8882 125.287 65.5731C127.814 66.4717 127.927 66.6963 127.702 69.7853C127.365 74.1097 130.398 93.8788 131.521 94.6089C134.61 96.6307 136.969 93.0363 135.958 87.7009C133.206 72.7618 135.059 63.4951 140.563 64.8992C142.248 65.3485 143.484 66.8648 143.484 68.6059C143.764 85.5106 143.933 96.7992 149.1 96.7992C152.357 96.7992 152.357 96.9115 151.627 82.2532C150.841 66.6964 152.694 65.8539 155.446 66.6963C159.434 67.9319 159.827 77.2548 160.22 79.7821C160.22 79.8383 169.093 138.134 169.093 138.247C170.161 151.501 178.416 163.126 184.201 159.42C185.38 158.634 183.19 153.41 180.831 151.445Z" fill="#F3C26A"/>
<path d="M42.1112 80.6807C42.1112 71.6386 42.2234 70.9085 44.0206 68.8867C47.2218 65.1238 48.2328 68.5497 48.8506 85.8476C49.2999 98.4841 49.3562 98.6525 52.0519 99.4388C55.534 100.506 55.871 98.8772 55.4779 84.612C55.0847 71.7509 55.1408 71.3017 56.8257 69.6168C60.3077 66.0786 61.0379 67.4827 62.4981 79.6698C63.3405 87.0832 63.228 91.2392 62.0486 97.6416C61.7678 99.2703 62.0486 99.7758 63.3965 100.169C67.047 101.124 67.6648 99.8881 68.7319 89.2173C70.5852 70.7401 68.058 65.18 57.6119 65.0677C54.523 65.0115 50.9848 64.6184 49.7492 64.0568C48.5137 63.5513 45.7055 63.1582 43.5152 63.2143C41.3249 63.2705 37.7305 63.102 35.5963 62.8212C33.0129 62.4843 30.8789 62.7089 29.3626 63.3828C22.9039 66.3594 21.7807 69.8414 14.1988 110.783C12.9071 117.86 11.4468 126.677 11.0537 130.328C10.2674 137.123 7.90852 145.042 4.76345 151.557C2.57314 156.05 3.0787 157.679 6.56075 157.679C12.7947 157.679 18.6356 147.57 20.0396 134.259C20.7697 127.183 22.0615 124.262 24.308 108.088C28.5763 76.9179 29.3623 73.3235 32.5074 69.673C36.8319 64.6745 36.4387 66.3033 37.0004 95.3952C37.0004 96.6307 38.1237 97.5854 39.3593 97.4731C41.6057 97.3046 42.1112 95.2266 42.1112 80.6807Z" fill="#F3C26A"/>
<path d="M146.853 158.128C143.315 151.613 143.034 151.389 136.744 150.715C129.106 149.872 123.209 146.896 120.681 142.627C115.121 133.136 107.315 107.919 108.214 102.359C109.449 94.5528 112.032 95.1144 116.245 103.988C119.558 110.952 121.749 113.423 129.555 119.264C133.037 121.848 135.171 124.15 136.575 126.902C138.316 130.272 138.934 130.833 140.956 130.833C147.864 130.833 139.608 115.838 131.184 113.142C127.589 112.019 126.466 111.064 126.466 109.211C126.466 99.9444 112.931 89.8914 105.743 93.8227C99.5647 97.2486 99.0591 102.416 103.327 117.972C111.527 147.794 116.132 153.86 131.521 155.208C137.53 155.769 138.99 156.78 142.023 162.453C146.179 170.259 150.953 164.924 149.998 163.688C149.661 163.183 148.257 160.712 146.853 158.128Z" fill="#F3C26A"/>
<path d="M72.2142 97.4735C68.1144 99.383 63.6776 104.101 61.7681 108.594C60.364 111.907 59.971 112.244 56.8259 112.75C49.9742 113.817 44.021 118.927 43.1225 124.375C42.3362 129.205 47.2782 131.676 49.0754 127.296C51.4342 121.623 56.0957 117.243 61.2064 115.951C64.3515 115.165 70.6418 108.874 75.9772 101.349C79.3469 96.575 81.5933 103.034 79.2345 110.559C71.8211 133.81 62.2174 146.615 51.1535 147.851C46.4921 148.412 45.481 149.367 41.4935 157.286C38.8539 162.453 38.7979 162.734 40.2019 163.745C43.5716 166.216 46.7729 163.857 48.9632 157.342C50.4796 152.849 50.6482 152.625 54.074 151.782C66.9913 148.469 73.3937 140.831 82.6604 117.86C89.7368 100.338 85.1876 91.4642 72.2142 97.4735Z" fill="#F3C26A"/>
</svg>
